<?xml version="1.0" encoding="UTF-8"?>
<svg xmlns="http://www.w3.org/2000/svg" xmlns:xlink="http://www.w3.org/1999/xlink" width="375pt" height="374.999991pt" viewBox="0 0 375 374.999991" version="1.2">
	<defs>
		<clipPath id="clip1">
			<path d="M 7.160156 182 L 367.859375 182 L 367.859375 362.683594 L 7.160156 362.683594 Z M 7.160156 182 " />
		</clipPath>
	</defs>
	<g id="surface1">
		<g clip-path="url(#clip1)" clip-rule="nonzero">
			<path style=" stroke:none;fill-rule:nonzero;fill:rgb(21.958923%,71.369934%,100%);fill-opacity:1;" d="M 367.410156 184.148438 C 357.386719 180.183594 346.402344 185.910156 337.179688 191.414062 C 318.351562 202.679688 299.492188 213.945312 280.695312 225.207031 C 276.945312 227.414062 275.730469 232.023438 277.363281 236.054688 C 282.679688 249.207031 275.859375 266.648438 263.59375 275.128906 C 249.121094 285.082031 230.257812 285.59375 212.773438 284.121094 C 198.300781 282.90625 183.601562 280.539062 169.257812 282.011719 C 164.453125 282.488281 160.324219 278.617188 160.324219 273.816406 L 160.324219 273.625 C 160.324219 269.015625 164.039062 265.304688 168.648438 265.335938 L 239.257812 265.722656 C 246.367188 265.753906 253.378906 262.96875 257.957031 257.496094 C 266.667969 247.097656 259.175781 236.089844 249.855469 232.152344 C 243.292969 229.398438 235.925781 229.398438 228.785156 229.464844 C 208.386719 229.625 184.753906 231.257812 163.878906 225.816406 C 141.332031 219.925781 124.105469 211.832031 100.441406 219.992188 C 79.402344 227.222656 61.824219 242.007812 46.484375 258.074219 L 9.660156 291.449219 C 6.617188 294.203125 6.296875 298.90625 8.988281 302.011719 L 58.910156 360.0625 C 61.535156 363.101562 66.082031 363.582031 69.285156 361.148438 L 119.238281 322.90625 C 123.273438 323.804688 127.5 323.867188 131.664062 323.867188 C 167.015625 323.867188 202.367188 323.867188 237.753906 323.898438 C 242.8125 323.898438 248.0625 323.867188 252.835938 322.140625 C 258.375 320.089844 262.792969 315.964844 267.085938 311.929688 C 306.726562 274.425781 373.941406 198.742188 367.410156 184.148438 " />
		</g>
		<path style=" stroke:none;fill-rule:nonzero;fill:rgb(21.958923%,71.369934%,100%);fill-opacity:1;" d="M 200.957031 60.914062 L 192.921875 68.945312 L 184.882812 60.914062 C 176.238281 52.273438 164.742188 47.539062 152.542969 47.539062 C 140.308594 47.539062 128.8125 52.273438 120.167969 60.914062 C 102.332031 78.738281 102.332031 107.761719 120.167969 125.589844 L 192.214844 197.589844 L 192.921875 196.886719 L 193.625 197.589844 L 265.644531 125.589844 C 283.511719 107.761719 283.511719 78.738281 265.644531 60.914062 C 247.808594 43.089844 218.796875 43.089844 200.957031 60.914062 " />
		<path style="fill:none;stroke-width:1;stroke-linecap:round;stroke-linejoin:miter;stroke:rgb(21.958923%,71.369934%,100%);stroke-opacity:1;stroke-miterlimit:4;" d="M 0.500302 -0.0000781844 L 14.249368 0.0000300177 " transform="matrix(2.388537,2.908417,-2.897977,2.379963,83.761816,33.935725)" />
		<path style="fill:none;stroke-width:1;stroke-linecap:round;stroke-linejoin:miter;stroke:rgb(21.958923%,71.369934%,100%);stroke-opacity:1;stroke-miterlimit:4;" d="M 0.499915 0.000231217 L 14.249641 -0.000465574 " transform="matrix(2.388537,2.908417,-2.897977,2.379963,107.169885,11.373613)" />
		<path style="fill:none;stroke-width:1;stroke-linecap:round;stroke-linejoin:miter;stroke:rgb(21.958923%,71.369934%,100%);stroke-opacity:1;stroke-miterlimit:4;" d="M 0.499577 -0.000103537 L 14.250104 -0.000139228 " transform="matrix(2.388537,2.908417,-2.897977,2.379963,188.947067,159.359769)" />
		<path style="fill:none;stroke-width:1;stroke-linecap:round;stroke-linejoin:miter;stroke:rgb(21.958923%,71.369934%,100%);stroke-opacity:1;stroke-miterlimit:4;" d="M 0.499863 -0.00063226 L 14.249731 0.000137043 " transform="matrix(2.388537,2.908417,-2.897977,2.379963,226.948758,147.453946)" />
	</g>
</svg>
